<svg xmlns="http://www.w3.org/2000/svg" width="626" height="526" fill="none" viewBox="0 0 626 526"><path fill="#35C75A" d="M200.431 186.922L88.2125 375.885H159.772L195.009 315.512L327.834 524.125H395.106L200.431 186.922Z"/><path fill="#6EC2B7" d="M310.9 0L457.819 241.941H386.582L308.342 114.929L282.29 161.334L348.981 275.817H474.877L626 524.125H430.429L335.527 365.674H402.92L464.186 465.742H523.169L444.244 334.681H316.546L216.152 161.334L310.9 0Z"/><path fill="#DC2545" d="M95.7432 487.727L146.219 399.552H74.1175C50.0326 440.206 0 523.824 0 525.207C0 526.589 239.258 525.663 297.561 525.087L275.457 487.727H95.7432Z"/></svg>