<svg xmlns="http://www.w3.org/2000/svg" width="1215" height="290" fill="none" viewBox="0 0 1215 290"><path fill="#fff" d="M460.797 131.625C460.797 142.334 459.586 151.144 457.165 158.053C454.743 164.963 451.284 170.404 446.787 174.377C442.291 178.35 436.842 181.113 430.443 182.668C424.217 184.223 417.212 185 409.429 185C405.278 185 400.349 184.655 394.641 183.964C388.934 183.273 383.832 182.323 379.335 181.113V162.199C383.313 163.235 387.983 164.185 393.344 165.049C398.706 165.74 404.932 166.085 412.023 166.085C421.017 166.085 427.503 163.494 431.481 158.312C435.632 153.13 437.707 145.098 437.707 134.216C437.707 127.997 437.275 122.815 436.41 118.669C435.545 114.351 434.248 110.896 432.519 108.305C430.789 105.542 428.541 103.469 425.773 102.087C423.179 100.705 420.152 99.6685 416.693 98.9776C409.429 97.423 403.289 95.4365 398.273 93.0182C393.258 90.5999 389.193 87.4907 386.08 83.6905C382.967 79.8903 380.632 75.2264 379.075 69.6989C377.692 64.1713 377 57.6074 377 50.007C377 40.6793 378.211 32.9062 380.632 26.6877C383.226 20.2964 386.772 15.1144 391.269 11.1415C395.939 7.16853 401.387 4.31839 407.613 2.59103C413.839 0.863678 420.671 0 428.108 0C432.432 0 437.102 0.431839 442.118 1.29552C447.306 1.98646 451.803 2.85014 455.608 3.88655V22.8011C451.111 21.7647 446.096 20.901 440.561 20.2101C435.026 19.3464 430.011 18.9146 425.514 18.9146C422.228 18.9146 419.028 19.4328 415.915 20.4692C412.975 21.5056 410.294 23.1466 407.872 25.3922C405.624 27.6377 403.722 30.5742 402.165 34.2017C400.781 37.6564 400.09 41.9748 400.09 47.1569C400.09 52.3389 400.349 56.7437 400.868 60.3711C401.387 63.8259 402.338 66.676 403.722 68.9216C405.278 71.1671 407.354 72.9809 409.948 74.3627C412.542 75.5719 415.915 76.6083 420.066 77.472C426.292 78.6811 431.913 80.4085 436.929 82.6541C441.945 84.8996 446.182 88.0952 449.641 92.2409C453.273 96.2138 456.041 101.396 457.943 107.787C459.846 114.178 460.797 122.124 460.797 131.625Z"/><path fill="#fff" d="M646.186 183.186V20.4692L618.426 122.297H596.894L569.134 20.4692V183.186H548.38V1.81372H584.96L608.568 94.5728L631.917 1.81372H667.719V183.186H646.186Z"/><path fill="#fff" d="M806.485 18.9146L785.471 117.892H827.758L806.485 18.9146ZM841.768 183.186L831.909 137.325H781.32L771.202 183.186H748.112L791.957 1.81372H821.791L864.857 183.186H841.768Z"/><path fill="#fff" d="M1039.46 52.8571C1039.46 66.3305 1037.47 77.3856 1033.49 86.0224C1029.51 94.6592 1022.85 100.791 1013.51 104.419L1049.05 183.186H1024.15L990.941 108.046H967.852V183.186H945.281V1.81372C949.605 1.46825 954.188 1.12278 959.031 0.777301C963.182 0.431834 967.852 0.2591 973.041 0.2591C978.402 0.0863668 983.764 0 989.125 0C998.984 0 1007.11 1.29552 1013.51 3.88655C1020.08 6.30485 1025.27 9.84593 1029.08 14.5098C1032.88 19.1737 1035.56 24.7876 1037.12 31.3515C1038.68 37.7428 1039.46 44.9113 1039.46 52.8571ZM1016.37 54.6709C1016.37 42.0612 1014.64 32.9062 1011.18 27.2059C1007.72 21.5056 1001.41 18.6555 992.239 18.6555C984.974 18.6555 979.094 18.9146 974.597 19.4328C972.003 19.7782 969.754 20.0373 967.852 20.2101V89.1317H992.239C995.871 89.1317 999.157 88.6998 1002.1 87.8361C1005.04 86.7997 1007.55 85.0724 1009.62 82.6541C1011.87 80.063 1013.51 76.5219 1014.55 72.0308C1015.76 67.5397 1016.37 61.753 1016.37 54.6709Z"/><path fill="#fff" d="M1175.05 21.5056V183.186H1152.48V21.5056H1112.52V1.81372H1215V21.5056H1175.05Z"/><path fill="#fff" d="M419.205 289L416.131 274.84H400.355L397.2 289H390L403.672 233H412.976L426.405 289H419.205ZM408.202 238.28L401.65 268.84H414.836L408.202 238.28Z"/><path fill="#fff" d="M464.466 289C459.774 289 456.16 287.88 453.625 285.64C451.144 283.347 449.904 279.933 449.904 275.4V246.6C449.904 242.067 451.144 238.68 453.625 236.44C456.16 234.147 459.774 233 464.466 233H475.387V239.08H463.657C461.661 239.08 460.043 239.667 458.803 240.84C457.562 242.013 456.942 243.427 456.942 245.08V276.92C456.942 278.573 457.562 279.987 458.803 281.16C460.043 282.333 461.661 282.92 463.657 282.92H471.1V265.56H464.304V259.56H477.814V289H464.466Z"/><path fill="#fff" d="M521.6 265.8H514.4V289H507.362V233H521.843C526.427 233 529.879 234.013 532.198 236.04C534.571 238.013 535.757 241.16 535.757 245.48V253.16C535.757 259.187 533.33 262.947 528.476 264.44L539.721 289H532.036L521.6 265.8ZM528.719 244.76C528.719 242.733 528.234 241.267 527.263 240.36C526.346 239.453 524.863 239 522.813 239H514.4V259.8H522.813C524.863 259.8 526.346 259.347 527.263 258.44C528.234 257.48 528.719 255.987 528.719 253.96V244.76Z"/><path fill="#fff" d="M563.145 289V283.16H568.807V238.84H563.145V233H581.509V238.84H575.846V283.16H581.509V289H563.145Z"/><path fill="#fff" d="M622.799 289C618.106 289 614.493 287.88 611.958 285.64C609.477 283.347 608.237 279.933 608.237 275.4V246.6C608.237 242.067 609.477 238.68 611.958 236.44C614.493 234.147 618.106 233 622.799 233H632.668V239.08H621.99C619.994 239.08 618.376 239.667 617.136 240.84C615.895 242.013 615.275 243.427 615.275 245.08V276.92C615.275 278.573 615.895 279.987 617.136 281.16C618.376 282.333 619.994 282.92 621.99 282.92H632.668V289H622.799Z"/><path fill="#fff" d="M689.702 275.4C689.702 279.933 688.435 283.347 685.9 285.64C683.419 287.88 679.832 289 675.14 289H673.927C669.234 289 665.621 287.88 663.086 285.64C660.605 283.347 659.365 279.933 659.365 275.4V233H666.403V276.92C666.403 278.573 667.023 279.987 668.264 281.16C669.504 282.333 671.122 282.92 673.118 282.92H675.949C677.945 282.92 679.563 282.333 680.803 281.16C682.044 279.987 682.664 278.573 682.664 276.92V233H689.702V275.4Z"/><path fill="#fff" d="M720.052 289V233H727.09V282.92H745.131V289H720.052Z"/><path fill="#fff" d="M781.212 239.08V289H774.174V239.08H761.716V233H793.671V239.08H781.212Z"/><path fill="#fff" d="M848.667 275.4C848.667 279.933 847.4 283.347 844.865 285.64C842.384 287.88 838.797 289 834.105 289H832.892C828.199 289 824.586 287.88 822.051 285.64C819.57 283.347 818.33 279.933 818.33 275.4V233H825.368V276.92C825.368 278.573 825.988 279.987 827.229 281.16C828.469 282.333 830.087 282.92 832.083 282.92H834.914C836.91 282.92 838.528 282.333 839.768 281.16C841.009 279.987 841.629 278.573 841.629 276.92V233H848.667V275.4Z"/><path fill="#fff" d="M893.255 265.8H886.055V289H879.017V233H893.498C898.083 233 901.534 234.013 903.853 236.04C906.226 238.013 907.413 241.16 907.413 245.48V253.16C907.413 259.187 904.986 262.947 900.132 264.44L911.377 289H903.692L893.255 265.8ZM900.375 244.76C900.375 242.733 899.889 241.267 898.918 240.36C898.002 239.453 896.518 239 894.469 239H886.055V259.8H894.469C896.518 259.8 898.002 259.347 898.918 258.44C899.889 257.48 900.375 255.987 900.375 253.96V244.76Z"/><path fill="#fff" d="M938.036 289V233H964.571V238.84H945.074V257.16H962.549V263H945.074V283.16H964.571V289H938.036Z"/><path fill="#fff" d="M1031.27 289V233H1038.31V282.92H1056.35V289H1031.27Z"/><path fill="#fff" d="M1105.79 289L1102.71 274.84H1086.94L1083.78 289H1076.58L1090.26 233H1099.56L1112.99 289H1105.79ZM1094.79 238.28L1088.23 268.84H1101.42L1094.79 238.28Z"/><path fill="#fff" d="M1168 276.36C1168 280.947 1166.92 284.2 1164.76 286.12C1162.66 288.04 1159.15 289 1154.25 289H1138.88V233H1153.28C1158.08 233 1161.58 233.96 1163.79 235.88C1166.06 237.8 1167.19 241 1167.19 245.48V250.04C1167.19 254.147 1165.71 257.24 1162.74 259.32C1166.25 261.24 1168 264.52 1168 269.16V276.36ZM1160.15 244.76C1160.15 242.733 1159.67 241.267 1158.7 240.36C1157.78 239.453 1156.3 239 1154.25 239H1145.91V256.68H1154.25C1155.92 256.68 1157.32 256.147 1158.45 255.08C1159.59 254.013 1160.15 252.6 1160.15 250.84V244.76ZM1160.96 268.44C1160.96 266.68 1160.42 265.293 1159.34 264.28C1158.27 263.213 1156.84 262.68 1155.06 262.68H1145.91V283H1154.98C1157.02 283 1158.53 282.547 1159.51 281.64C1160.48 280.68 1160.96 279.187 1160.96 277.16V268.44Z"/><path fill="#fff" d="M107.902 106.629L47.4893 208.358H86.0132L104.983 175.856L176.489 288.163H212.705L107.902 106.629Z"/><path fill="#fff" d="M167.373 6L246.467 136.249H208.116L165.996 67.8719L151.971 92.8541L187.874 154.486H255.65L337.007 288.163H231.722L180.631 202.861H216.912L249.894 256.732H281.648L239.159 186.175H170.413L116.365 92.8541L167.373 6Z"/><path fill="#fff" d="M51.5433 268.567L78.717 221.098H39.9012C26.9351 242.985 0 288.001 0 288.745C0 289.489 128.804 288.99 160.192 288.68L148.292 268.567H51.5433Z"/></svg>