<svg xmlns="http://www.w3.org/2000/svg" version="1.1" xmlns:xlink="http://www.w3.org/1999/xlink" xmlns:svgjs="http://svgjs.dev/svgjs" width="1440" height="560" preserveAspectRatio="none" viewBox="0 0 1440 560"><g mask="url(&quot;#SvgjsMask1026&quot;)" fill="none"><path d="M-68.59 346.75L-68.59 346.75" stroke="#132e65" stroke-width="1.5"></path><path d="M-68.59 346.75L41.38 344.21" stroke="#132e65" stroke-width="1.5"></path><path d="M-68.59 346.75L82.34 558.5" stroke="#132e65" stroke-width="1.5"></path><path d="M-68.59 346.75L194.89 516.81" stroke="#132e65" stroke-width="1.5"></path><path d="M-68.59 346.75L251.53 359.06" stroke="#132e65" stroke-width="1.5"></path><path d="M-68.59 346.75L-96.59 672.74" stroke="#132e65" stroke-width="1.5"></path><path d="M-96.59 672.74L-96.59 672.74" stroke="#132e65" stroke-width="1.5"></path><path d="M-96.59 672.74L88.7 661.34" stroke="#132e65" stroke-width="1.5"></path><path d="M-96.59 672.74L82.34 558.5" stroke="#132e65" stroke-width="1.5"></path><path d="M-96.59 672.74L194.89 516.81" stroke="#132e65" stroke-width="1.5"></path><path d="M-96.59 672.74L247.95 682.28" stroke="#132e65" stroke-width="1.5"></path><path d="M-96.59 672.74L41.38 344.21" stroke="#132e65" stroke-width="1.5"></path><path d="M41.38 344.21L41.38 344.21" stroke="#132e65" stroke-width="1.5"></path><path d="M41.38 344.21L251.53 359.06" stroke="#132e65" stroke-width="1.5"></path><path d="M41.38 344.21L82.34 558.5" stroke="#132e65" stroke-width="1.5"></path><path d="M41.38 344.21L194.89 516.81" stroke="#132e65" stroke-width="1.5"></path><path d="M41.38 344.21L352.29 338.02" stroke="#132e65" stroke-width="1.5"></path><path d="M82.34 558.5L82.34 558.5" stroke="#132e65" stroke-width="1.5"></path><path d="M82.34 558.5L88.7 661.34" stroke="#132e65" stroke-width="1.5"></path><path d="M82.34 558.5L194.89 516.81" stroke="#132e65" stroke-width="1.5"></path><path d="M82.34 558.5L247.95 682.28" stroke="#132e65" stroke-width="1.5"></path><path d="M88.7 661.34L88.7 661.34" stroke="#132e65" stroke-width="1.5"></path><path d="M88.7 661.34L247.95 682.28" stroke="#132e65" stroke-width="1.5"></path><path d="M88.7 661.34L194.89 516.81" stroke="#132e65" stroke-width="1.5"></path><path d="M251.53 359.06L251.53 359.06" stroke="#132e65" stroke-width="1.5"></path><path d="M251.53 359.06L352.29 338.02" stroke="#132e65" stroke-width="1.5"></path><path d="M251.53 359.06L194.89 516.81" stroke="#132e65" stroke-width="1.5"></path><path d="M251.53 359.06L398.43 504.66" stroke="#132e65" stroke-width="1.5"></path><path d="M194.89 516.81L194.89 516.81" stroke="#132e65" stroke-width="1.5"></path><path d="M247.95 682.28L247.95 682.28" stroke="#132e65" stroke-width="1.5"></path><path d="M247.95 682.28L369.12 644.91" stroke="#132e65" stroke-width="1.5"></path><path d="M247.95 682.28L194.89 516.81" stroke="#132e65" stroke-width="1.5"></path><path d="M352.29 338.02L352.29 338.02" stroke="#132e65" stroke-width="1.5"></path><path d="M352.29 338.02L398.43 504.66" stroke="#132e65" stroke-width="1.5"></path><path d="M352.29 338.02L560.74 355.7" stroke="#132e65" stroke-width="1.5"></path><path d="M398.43 504.66L398.43 504.66" stroke="#132e65" stroke-width="1.5"></path><path d="M398.43 504.66L369.12 644.91" stroke="#132e65" stroke-width="1.5"></path><path d="M398.43 504.66L541.89 524.25" stroke="#132e65" stroke-width="1.5"></path><path d="M369.12 644.91L369.12 644.91" stroke="#132e65" stroke-width="1.5"></path><path d="M369.12 644.91L527.43 669.91" stroke="#132e65" stroke-width="1.5"></path><path d="M369.12 644.91L541.89 524.25" stroke="#132e65" stroke-width="1.5"></path><path d="M560.74 355.7L560.74 355.7" stroke="#132e65" stroke-width="1.5"></path><path d="M560.74 355.7L648.38 354.47" stroke="#132e65" stroke-width="1.5"></path><path d="M560.74 355.7L541.89 524.25" stroke="#132e65" stroke-width="1.5"></path><path d="M560.74 355.7L690.94 214.37" stroke="#132e65" stroke-width="1.5"></path><path d="M560.74 355.7L398.43 504.66" stroke="#132e65" stroke-width="1.5"></path><path d="M560.74 355.7L683.07 561.49" stroke="#132e65" stroke-width="1.5"></path><path d="M541.89 524.25L541.89 524.25" stroke="#132e65" stroke-width="1.5"></path><path d="M541.89 524.25L683.07 561.49" stroke="#132e65" stroke-width="1.5"></path><path d="M541.89 524.25L527.43 669.91" stroke="#132e65" stroke-width="1.5"></path><path d="M541.89 524.25L648.38 354.47" stroke="#132e65" stroke-width="1.5"></path><path d="M527.43 669.91L527.43 669.91" stroke="#132e65" stroke-width="1.5"></path><path d="M527.43 669.91L683.07 561.49" stroke="#132e65" stroke-width="1.5"></path><path d="M690.94 214.37L690.94 214.37" stroke="#132e65" stroke-width="1.5"></path><path d="M690.94 214.37L648.38 354.47" stroke="#132e65" stroke-width="1.5"></path><path d="M690.94 214.37L859.3 217.22" stroke="#132e65" stroke-width="1.5"></path><path d="M648.38 354.47L648.38 354.47" stroke="#132e65" stroke-width="1.5"></path><path d="M683.07 561.49L683.07 561.49" stroke="#132e65" stroke-width="1.5"></path><path d="M683.07 561.49L820.08 519.95" stroke="#132e65" stroke-width="1.5"></path><path d="M683.07 561.49L831.39 642.16" stroke="#132e65" stroke-width="1.5"></path><path d="M859.3 217.22L859.3 217.22" stroke="#132e65" stroke-width="1.5"></path><path d="M859.3 217.22L1004.55 205.25" stroke="#132e65" stroke-width="1.5"></path><path d="M856.07 397.02L856.07 397.02" stroke="#132e65" stroke-width="1.5"></path><path d="M856.07 397.02L820.08 519.95" stroke="#132e65" stroke-width="1.5"></path><path d="M856.07 397.02L988.42 386.47" stroke="#132e65" stroke-width="1.5"></path><path d="M820.08 519.95L820.08 519.95" stroke="#132e65" stroke-width="1.5"></path><path d="M820.08 519.95L831.39 642.16" stroke="#132e65" stroke-width="1.5"></path><path d="M820.08 519.95L971.58 490.49" stroke="#132e65" stroke-width="1.5"></path><path d="M820.08 519.95L937.66 679.66" stroke="#132e65" stroke-width="1.5"></path><path d="M820.08 519.95L988.42 386.47" stroke="#132e65" stroke-width="1.5"></path><path d="M831.39 642.16L831.39 642.16" stroke="#132e65" stroke-width="1.5"></path><path d="M831.39 642.16L937.66 679.66" stroke="#132e65" stroke-width="1.5"></path><path d="M831.39 642.16L971.58 490.49" stroke="#132e65" stroke-width="1.5"></path><path d="M831.39 642.16L856.07 397.02" stroke="#132e65" stroke-width="1.5"></path><path d="M831.39 642.16L988.42 386.47" stroke="#132e65" stroke-width="1.5"></path><path d="M987.36 -45.47L987.36 -45.47" stroke="#132e65" stroke-width="1.5"></path><path d="M987.36 -45.47L1095.33 -77.66" stroke="#132e65" stroke-width="1.5"></path><path d="M987.36 -45.47L994.2 103.35" stroke="#132e65" stroke-width="1.5"></path><path d="M987.36 -45.47L1087.91 107.58" stroke="#132e65" stroke-width="1.5"></path><path d="M987.36 -45.47L1004.55 205.25" stroke="#132e65" stroke-width="1.5"></path><path d="M994.2 103.35L994.2 103.35" stroke="#132e65" stroke-width="1.5"></path><path d="M994.2 103.35L1087.91 107.58" stroke="#132e65" stroke-width="1.5"></path><path d="M994.2 103.35L1004.55 205.25" stroke="#132e65" stroke-width="1.5"></path><path d="M994.2 103.35L859.3 217.22" stroke="#132e65" stroke-width="1.5"></path><path d="M1004.55 205.25L1004.55 205.25" stroke="#132e65" stroke-width="1.5"></path><path d="M1004.55 205.25L1087.91 107.58" stroke="#132e65" stroke-width="1.5"></path><path d="M1004.55 205.25L1140.4 208.1" stroke="#132e65" stroke-width="1.5"></path><path d="M1004.55 205.25L988.42 386.47" stroke="#132e65" stroke-width="1.5"></path><path d="M1004.55 205.25L1106.69 365.15" stroke="#132e65" stroke-width="1.5"></path><path d="M988.42 386.47L988.42 386.47" stroke="#132e65" stroke-width="1.5"></path><path d="M988.42 386.47L971.58 490.49" stroke="#132e65" stroke-width="1.5"></path><path d="M988.42 386.47L1106.69 365.15" stroke="#132e65" stroke-width="1.5"></path><path d="M988.42 386.47L859.3 217.22" stroke="#132e65" stroke-width="1.5"></path><path d="M971.58 490.49L971.58 490.49" stroke="#132e65" stroke-width="1.5"></path><path d="M971.58 490.49L856.07 397.02" stroke="#132e65" stroke-width="1.5"></path><path d="M971.58 490.49L1124.27 559.71" stroke="#132e65" stroke-width="1.5"></path><path d="M937.66 679.66L937.66 679.66" stroke="#132e65" stroke-width="1.5"></path><path d="M937.66 679.66L971.58 490.49" stroke="#132e65" stroke-width="1.5"></path><path d="M1095.33 -77.66L1095.33 -77.66" stroke="#132e65" stroke-width="1.5"></path><path d="M1095.33 -77.66L1276.85 -97.9" stroke="#132e65" stroke-width="1.5"></path><path d="M1095.33 -77.66L1087.91 107.58" stroke="#132e65" stroke-width="1.5"></path><path d="M1095.33 -77.66L994.2 103.35" stroke="#132e65" stroke-width="1.5"></path><path d="M1087.91 107.58L1087.91 107.58" stroke="#132e65" stroke-width="1.5"></path><path d="M1087.91 107.58L1140.4 208.1" stroke="#132e65" stroke-width="1.5"></path><path d="M1140.4 208.1L1140.4 208.1" stroke="#132e65" stroke-width="1.5"></path><path d="M1140.4 208.1L1242.66 91.78" stroke="#132e65" stroke-width="1.5"></path><path d="M1106.69 365.15L1106.69 365.15" stroke="#132e65" stroke-width="1.5"></path><path d="M1106.69 365.15L1246.51 393.2" stroke="#132e65" stroke-width="1.5"></path><path d="M1106.69 365.15L1140.4 208.1" stroke="#132e65" stroke-width="1.5"></path><path d="M1106.69 365.15L971.58 490.49" stroke="#132e65" stroke-width="1.5"></path><path d="M1106.69 365.15L1124.27 559.71" stroke="#132e65" stroke-width="1.5"></path><path d="M1124.27 559.71L1124.27 559.71" stroke="#132e65" stroke-width="1.5"></path><path d="M1124.27 559.71L1137 641.63" stroke="#132e65" stroke-width="1.5"></path><path d="M1124.27 559.71L1275.06 645.69" stroke="#132e65" stroke-width="1.5"></path><path d="M1124.27 559.71L1307.19 506.28" stroke="#132e65" stroke-width="1.5"></path><path d="M1124.27 559.71L1246.51 393.2" stroke="#132e65" stroke-width="1.5"></path><path d="M1137 641.63L1137 641.63" stroke="#132e65" stroke-width="1.5"></path><path d="M1276.85 -97.9L1276.85 -97.9" stroke="#132e65" stroke-width="1.5"></path><path d="M1276.85 -97.9L1454.45 -95.77" stroke="#132e65" stroke-width="1.5"></path><path d="M1276.85 -97.9L1242.66 91.78" stroke="#132e65" stroke-width="1.5"></path><path d="M1276.85 -97.9L1444.7 63.81" stroke="#132e65" stroke-width="1.5"></path><path d="M1276.85 -97.9L1087.91 107.58" stroke="#132e65" stroke-width="1.5"></path><path d="M1276.85 -97.9L987.36 -45.47" stroke="#132e65" stroke-width="1.5"></path><path d="M1242.66 91.78L1242.66 91.78" stroke="#132e65" stroke-width="1.5"></path><path d="M1242.66 91.78L1306.95 196.04" stroke="#132e65" stroke-width="1.5"></path><path d="M1242.66 91.78L1087.91 107.58" stroke="#132e65" stroke-width="1.5"></path><path d="M1306.95 196.04L1306.95 196.04" stroke="#132e65" stroke-width="1.5"></path><path d="M1306.95 196.04L1428.5 226.29" stroke="#132e65" stroke-width="1.5"></path><path d="M1246.51 393.2L1246.51 393.2" stroke="#132e65" stroke-width="1.5"></path><path d="M1246.51 393.2L1307.19 506.28" stroke="#132e65" stroke-width="1.5"></path><path d="M1246.51 393.2L1443.23 345.7" stroke="#132e65" stroke-width="1.5"></path><path d="M1307.19 506.28L1307.19 506.28" stroke="#132e65" stroke-width="1.5"></path><path d="M1307.19 506.28L1407.83 529.37" stroke="#132e65" stroke-width="1.5"></path><path d="M1307.19 506.28L1275.06 645.69" stroke="#132e65" stroke-width="1.5"></path><path d="M1307.19 506.28L1403.71 653.67" stroke="#132e65" stroke-width="1.5"></path><path d="M1307.19 506.28L1443.23 345.7" stroke="#132e65" stroke-width="1.5"></path><path d="M1275.06 645.69L1275.06 645.69" stroke="#132e65" stroke-width="1.5"></path><path d="M1275.06 645.69L1403.71 653.67" stroke="#132e65" stroke-width="1.5"></path><path d="M1275.06 645.69L1137 641.63" stroke="#132e65" stroke-width="1.5"></path><path d="M1454.45 -95.77L1454.45 -95.77" stroke="#132e65" stroke-width="1.5"></path><path d="M1454.45 -95.77L1444.7 63.81" stroke="#132e65" stroke-width="1.5"></path><path d="M1454.45 -95.77L1611.39 -50.53" stroke="#132e65" stroke-width="1.5"></path><path d="M1454.45 -95.77L1537.71 58.3" stroke="#132e65" stroke-width="1.5"></path><path d="M1444.7 63.81L1444.7 63.81" stroke="#132e65" stroke-width="1.5"></path><path d="M1444.7 63.81L1537.71 58.3" stroke="#132e65" stroke-width="1.5"></path><path d="M1444.7 63.81L1428.5 226.29" stroke="#132e65" stroke-width="1.5"></path><path d="M1444.7 63.81L1583.29 187.6" stroke="#132e65" stroke-width="1.5"></path><path d="M1444.7 63.81L1306.95 196.04" stroke="#132e65" stroke-width="1.5"></path><path d="M1428.5 226.29L1428.5 226.29" stroke="#132e65" stroke-width="1.5"></path><path d="M1428.5 226.29L1443.23 345.7" stroke="#132e65" stroke-width="1.5"></path><path d="M1428.5 226.29L1583.29 187.6" stroke="#132e65" stroke-width="1.5"></path><path d="M1428.5 226.29L1545.04 386.92" stroke="#132e65" stroke-width="1.5"></path><path d="M1443.23 345.7L1443.23 345.7" stroke="#132e65" stroke-width="1.5"></path><path d="M1443.23 345.7L1545.04 386.92" stroke="#132e65" stroke-width="1.5"></path><path d="M1443.23 345.7L1407.83 529.37" stroke="#132e65" stroke-width="1.5"></path><path d="M1443.23 345.7L1306.95 196.04" stroke="#132e65" stroke-width="1.5"></path><path d="M1407.83 529.37L1407.83 529.37" stroke="#132e65" stroke-width="1.5"></path><path d="M1407.83 529.37L1403.71 653.67" stroke="#132e65" stroke-width="1.5"></path><path d="M1407.83 529.37L1564.87 513.68" stroke="#132e65" stroke-width="1.5"></path><path d="M1407.83 529.37L1275.06 645.69" stroke="#132e65" stroke-width="1.5"></path><path d="M1403.71 653.67L1403.71 653.67" stroke="#132e65" stroke-width="1.5"></path><path d="M1611.39 -50.53L1611.39 -50.53" stroke="#132e65" stroke-width="1.5"></path><path d="M1611.39 -50.53L1537.71 58.3" stroke="#132e65" stroke-width="1.5"></path><path d="M1611.39 -50.53L1444.7 63.81" stroke="#132e65" stroke-width="1.5"></path><path d="M1611.39 -50.53L1583.29 187.6" stroke="#132e65" stroke-width="1.5"></path><path d="M1611.39 -50.53L1428.5 226.29" stroke="#132e65" stroke-width="1.5"></path><path d="M1611.39 -50.53L1276.85 -97.9" stroke="#132e65" stroke-width="1.5"></path><path d="M1537.71 58.3L1537.71 58.3" stroke="#132e65" stroke-width="1.5"></path><path d="M1537.71 58.3L1583.29 187.6" stroke="#132e65" stroke-width="1.5"></path><path d="M1583.29 187.6L1583.29 187.6" stroke="#132e65" stroke-width="1.5"></path><path d="M1583.29 187.6L1545.04 386.92" stroke="#132e65" stroke-width="1.5"></path><path d="M1545.04 386.92L1545.04 386.92" stroke="#132e65" stroke-width="1.5"></path><path d="M1545.04 386.92L1564.87 513.68" stroke="#132e65" stroke-width="1.5"></path><path d="M1545.04 386.92L1407.83 529.37" stroke="#132e65" stroke-width="1.5"></path><path d="M1564.87 513.68L1564.87 513.68" stroke="#132e65" stroke-width="1.5"></path><path d="M1564.87 513.68L1592.97 657.79" stroke="#132e65" stroke-width="1.5"></path><path d="M1592.97 657.79L1592.97 657.79" stroke="#132e65" stroke-width="1.5"></path><path d="M1592.97 657.79L1403.71 653.67" stroke="#132e65" stroke-width="1.5"></path><path d="M1592.97 657.79L1407.83 529.37" stroke="#132e65" stroke-width="1.5"></path><path d="M1592.97 657.79L1545.04 386.92" stroke="#132e65" stroke-width="1.5"></path><circle r="5" cx="-68.59" cy="346.75" fill="#132e65"></circle><circle r="5" cx="-96.59" cy="672.74" fill="#132e65"></circle><circle r="5" cx="41.38" cy="344.21" fill="#132e65"></circle><circle r="5" cx="82.34" cy="558.5" fill="#132e65"></circle><circle r="5" cx="88.7" cy="661.34" fill="#132e65"></circle><circle r="5" cx="251.53" cy="359.06" fill="#132e65"></circle><circle r="5" cx="194.89" cy="516.81" fill="#132e65"></circle><circle r="5" cx="247.95" cy="682.28" fill="#132e65"></circle><circle r="5" cx="352.29" cy="338.02" fill="#132e65"></circle><circle r="5" cx="398.43" cy="504.66" fill="#132e65"></circle><circle r="5" cx="369.12" cy="644.91" fill="#132e65"></circle><circle r="5" cx="560.74" cy="355.7" fill="#132e65"></circle><circle r="5" cx="541.89" cy="524.25" fill="#132e65"></circle><circle r="5" cx="527.43" cy="669.91" fill="#132e65"></circle><circle r="5" cx="690.94" cy="214.37" fill="#132e65"></circle><circle r="5" cx="648.38" cy="354.47" fill="#132e65"></circle><circle r="5" cx="683.07" cy="561.49" fill="#132e65"></circle><circle r="5" cx="859.3" cy="217.22" fill="#132e65"></circle><circle r="5" cx="856.07" cy="397.02" fill="#132e65"></circle><circle r="5" cx="820.08" cy="519.95" fill="#132e65"></circle><circle r="5" cx="831.39" cy="642.16" fill="#132e65"></circle><circle r="5" cx="987.36" cy="-45.47" fill="#132e65"></circle><circle r="5" cx="994.2" cy="103.35" fill="#132e65"></circle><circle r="5" cx="1004.55" cy="205.25" fill="#132e65"></circle><circle r="5" cx="988.42" cy="386.47" fill="#132e65"></circle><circle r="5" cx="971.58" cy="490.49" fill="#132e65"></circle><circle r="5" cx="937.66" cy="679.66" fill="#132e65"></circle><circle r="5" cx="1095.33" cy="-77.66" fill="#132e65"></circle><circle r="5" cx="1087.91" cy="107.58" fill="#132e65"></circle><circle r="5" cx="1140.4" cy="208.1" fill="#132e65"></circle><circle r="5" cx="1106.69" cy="365.15" fill="#132e65"></circle><circle r="5" cx="1124.27" cy="559.71" fill="#132e65"></circle><circle r="5" cx="1137" cy="641.63" fill="#132e65"></circle><circle r="5" cx="1276.85" cy="-97.9" fill="#132e65"></circle><circle r="5" cx="1242.66" cy="91.78" fill="#132e65"></circle><circle r="5" cx="1306.95" cy="196.04" fill="#132e65"></circle><circle r="5" cx="1246.51" cy="393.2" fill="#132e65"></circle><circle r="5" cx="1307.19" cy="506.28" fill="#132e65"></circle><circle r="5" cx="1275.06" cy="645.69" fill="#132e65"></circle><circle r="5" cx="1454.45" cy="-95.77" fill="#132e65"></circle><circle r="5" cx="1444.7" cy="63.81" fill="#132e65"></circle><circle r="5" cx="1428.5" cy="226.29" fill="#132e65"></circle><circle r="5" cx="1443.23" cy="345.7" fill="#132e65"></circle><circle r="5" cx="1407.83" cy="529.37" fill="#132e65"></circle><circle r="5" cx="1403.71" cy="653.67" fill="#132e65"></circle><circle r="5" cx="1611.39" cy="-50.53" fill="#132e65"></circle><circle r="5" cx="1537.71" cy="58.3" fill="#132e65"></circle><circle r="5" cx="1583.29" cy="187.6" fill="#132e65"></circle><circle r="5" cx="1545.04" cy="386.92" fill="#132e65"></circle><circle r="5" cx="1564.87" cy="513.68" fill="#132e65"></circle><circle r="5" cx="1592.97" cy="657.79" fill="#132e65"></circle><path d="M988.1 391.7L988.1 391.7" stroke="hsl(185.5, 51.5%, 43.1%)" stroke-width="1.5"></path><path d="M988.1 391.7L1093.85 337.6" stroke="hsl(185.5, 51.5%, 43.1%)" stroke-width="1.5"></path><path d="M1098.71 663.92L1098.71 663.92" stroke="hsl(185.5, 51.5%, 43.1%)" stroke-width="1.5"></path><path d="M1098.71 663.92L999.26 640.73" stroke="hsl(185.5, 51.5%, 43.1%)" stroke-width="1.5"></path><path d="M1098.71 663.92L1248.18 678.15" stroke="hsl(185.5, 51.5%, 43.1%)" stroke-width="1.5"></path><path d="M1098.71 663.92L1150.52 504.92" stroke="hsl(185.5, 51.5%, 43.1%)" stroke-width="1.5"></path><path d="M1293.63 358.79L1293.63 358.79" stroke="hsl(185.5, 51.5%, 43.1%)" stroke-width="1.5"></path><path d="M1293.63 358.79L1311.78 252.67" stroke="hsl(185.5, 51.5%, 43.1%)" stroke-width="1.5"></path><path d="M1293.63 358.79L1413.89 343.08" stroke="hsl(185.5, 51.5%, 43.1%)" stroke-width="1.5"></path><path d="M1293.63 358.79L1274.64 517.67" stroke="hsl(185.5, 51.5%, 43.1%)" stroke-width="1.5"></path><path d="M1293.63 358.79L1398.96 499.95" stroke="hsl(185.5, 51.5%, 43.1%)" stroke-width="1.5"></path><path d="M1414.75 697.06L1414.75 697.06" stroke="hsl(185.5, 51.5%, 43.1%)" stroke-width="1.5"></path><path d="M1414.75 697.06L1248.18 678.15" stroke="hsl(185.5, 51.5%, 43.1%)" stroke-width="1.5"></path><path d="M1414.75 697.06L1601.16 691.49" stroke="hsl(185.5, 51.5%, 43.1%)" stroke-width="1.5"></path><path d="M1414.75 697.06L1398.96 499.95" stroke="hsl(185.5, 51.5%, 43.1%)" stroke-width="1.5"></path><path d="M1414.75 697.06L1274.64 517.67" stroke="hsl(185.5, 51.5%, 43.1%)" stroke-width="1.5"></path><path d="M1414.75 697.06L1578.8 530.3" stroke="hsl(185.5, 51.5%, 43.1%)" stroke-width="1.5"></path><path d="M1601.16 691.49L1601.16 691.49" stroke="hsl(185.5, 51.5%, 43.1%)" stroke-width="1.5"></path><path d="M1601.16 691.49L1578.8 530.3" stroke="hsl(185.5, 51.5%, 43.1%)" stroke-width="1.5"></path><path d="M1601.16 691.49L1398.96 499.95" stroke="hsl(185.5, 51.5%, 43.1%)" stroke-width="1.5"></path><path d="M1601.16 691.49L1248.18 678.15" stroke="hsl(185.5, 51.5%, 43.1%)" stroke-width="1.5"></path><path d="M-91.72 521.94L-91.72 521.94" stroke="hsl(185.5, 51.5%, 43.1%)" stroke-width="1.5"></path><path d="M-91.72 521.94L55.32 527.08" stroke="hsl(185.5, 51.5%, 43.1%)" stroke-width="1.5"></path><path d="M-91.72 521.94L-46.54 671.63" stroke="hsl(185.5, 51.5%, 43.1%)" stroke-width="1.5"></path><path d="M-91.72 521.94L43.51 706.38" stroke="hsl(185.5, 51.5%, 43.1%)" stroke-width="1.5"></path><path d="M-91.72 521.94L218.39 496.68" stroke="hsl(185.5, 51.5%, 43.1%)" stroke-width="1.5"></path><path d="M-91.72 521.94L228.85 651.97" stroke="hsl(185.5, 51.5%, 43.1%)" stroke-width="1.5"></path><path d="M-46.54 671.63L-46.54 671.63" stroke="hsl(185.5, 51.5%, 43.1%)" stroke-width="1.5"></path><path d="M-46.54 671.63L43.51 706.38" stroke="hsl(185.5, 51.5%, 43.1%)" stroke-width="1.5"></path><path d="M-46.54 671.63L55.32 527.08" stroke="hsl(185.5, 51.5%, 43.1%)" stroke-width="1.5"></path><path d="M-46.54 671.63L228.85 651.97" stroke="hsl(185.5, 51.5%, 43.1%)" stroke-width="1.5"></path><path d="M55.32 527.08L55.32 527.08" stroke="hsl(185.5, 51.5%, 43.1%)" stroke-width="1.5"></path><path d="M55.32 527.08L218.39 496.68" stroke="hsl(185.5, 51.5%, 43.1%)" stroke-width="1.5"></path><path d="M43.51 706.38L43.51 706.38" stroke="hsl(185.5, 51.5%, 43.1%)" stroke-width="1.5"></path><path d="M43.51 706.38L55.32 527.08" stroke="hsl(185.5, 51.5%, 43.1%)" stroke-width="1.5"></path><path d="M43.51 706.38L228.85 651.97" stroke="hsl(185.5, 51.5%, 43.1%)" stroke-width="1.5"></path><path d="M43.51 706.38L218.39 496.68" stroke="hsl(185.5, 51.5%, 43.1%)" stroke-width="1.5"></path><path d="M43.51 706.38L348.53 549.64" stroke="hsl(185.5, 51.5%, 43.1%)" stroke-width="1.5"></path><path d="M218.39 496.68L218.39 496.68" stroke="hsl(185.5, 51.5%, 43.1%)" stroke-width="1.5"></path><path d="M218.39 496.68L348.53 549.64" stroke="hsl(185.5, 51.5%, 43.1%)" stroke-width="1.5"></path><path d="M218.39 496.68L228.85 651.97" stroke="hsl(185.5, 51.5%, 43.1%)" stroke-width="1.5"></path><path d="M228.85 651.97L228.85 651.97" stroke="hsl(185.5, 51.5%, 43.1%)" stroke-width="1.5"></path><path d="M228.85 651.97L348.53 549.64" stroke="hsl(185.5, 51.5%, 43.1%)" stroke-width="1.5"></path><path d="M348.53 549.64L348.53 549.64" stroke="hsl(185.5, 51.5%, 43.1%)" stroke-width="1.5"></path><path d="M348.53 549.64L392.22 654.16" stroke="hsl(185.5, 51.5%, 43.1%)" stroke-width="1.5"></path><path d="M348.53 549.64L487.94 507.89" stroke="hsl(185.5, 51.5%, 43.1%)" stroke-width="1.5"></path><path d="M392.22 654.16L392.22 654.16" stroke="hsl(185.5, 51.5%, 43.1%)" stroke-width="1.5"></path><path d="M392.22 654.16L228.85 651.97" stroke="hsl(185.5, 51.5%, 43.1%)" stroke-width="1.5"></path><path d="M392.22 654.16L556.72 687.56" stroke="hsl(185.5, 51.5%, 43.1%)" stroke-width="1.5"></path><path d="M487.94 507.89L487.94 507.89" stroke="hsl(185.5, 51.5%, 43.1%)" stroke-width="1.5"></path><path d="M487.94 507.89L392.22 654.16" stroke="hsl(185.5, 51.5%, 43.1%)" stroke-width="1.5"></path><path d="M487.94 507.89L556.72 687.56" stroke="hsl(185.5, 51.5%, 43.1%)" stroke-width="1.5"></path><path d="M556.72 687.56L556.72 687.56" stroke="hsl(185.5, 51.5%, 43.1%)" stroke-width="1.5"></path><path d="M556.72 687.56L696.44 711.96" stroke="hsl(185.5, 51.5%, 43.1%)" stroke-width="1.5"></path><path d="M702.85 534.48L702.85 534.48" stroke="hsl(185.5, 51.5%, 43.1%)" stroke-width="1.5"></path><path d="M702.85 534.48L828.22 547.63" stroke="hsl(185.5, 51.5%, 43.1%)" stroke-width="1.5"></path><path d="M702.85 534.48L788.82 654.35" stroke="hsl(185.5, 51.5%, 43.1%)" stroke-width="1.5"></path><path d="M702.85 534.48L696.44 711.96" stroke="hsl(185.5, 51.5%, 43.1%)" stroke-width="1.5"></path><path d="M702.85 534.48L793 371.52" stroke="hsl(185.5, 51.5%, 43.1%)" stroke-width="1.5"></path><path d="M702.85 534.48L556.72 687.56" stroke="hsl(185.5, 51.5%, 43.1%)" stroke-width="1.5"></path><path d="M702.85 534.48L487.94 507.89" stroke="hsl(185.5, 51.5%, 43.1%)" stroke-width="1.5"></path><path d="M696.44 711.96L696.44 711.96" stroke="hsl(185.5, 51.5%, 43.1%)" stroke-width="1.5"></path><path d="M696.44 711.96L788.82 654.35" stroke="hsl(185.5, 51.5%, 43.1%)" stroke-width="1.5"></path><path d="M793 371.52L793 371.52" stroke="hsl(185.5, 51.5%, 43.1%)" stroke-width="1.5"></path><path d="M793 371.52L828.22 547.63" stroke="hsl(185.5, 51.5%, 43.1%)" stroke-width="1.5"></path><path d="M793 371.52L988.1 391.7" stroke="hsl(185.5, 51.5%, 43.1%)" stroke-width="1.5"></path><path d="M828.22 547.63L828.22 547.63" stroke="hsl(185.5, 51.5%, 43.1%)" stroke-width="1.5"></path><path d="M828.22 547.63L788.82 654.35" stroke="hsl(185.5, 51.5%, 43.1%)" stroke-width="1.5"></path><path d="M828.22 547.63L966.95 551.05" stroke="hsl(185.5, 51.5%, 43.1%)" stroke-width="1.5"></path><path d="M828.22 547.63L999.26 640.73" stroke="hsl(185.5, 51.5%, 43.1%)" stroke-width="1.5"></path><path d="M828.22 547.63L696.44 711.96" stroke="hsl(185.5, 51.5%, 43.1%)" stroke-width="1.5"></path><path d="M788.82 654.35L788.82 654.35" stroke="hsl(185.5, 51.5%, 43.1%)" stroke-width="1.5"></path><path d="M788.82 654.35L966.95 551.05" stroke="hsl(185.5, 51.5%, 43.1%)" stroke-width="1.5"></path><path d="M969.96 248.03L969.96 248.03" stroke="hsl(185.5, 51.5%, 43.1%)" stroke-width="1.5"></path><path d="M969.96 248.03L988.1 391.7" stroke="hsl(185.5, 51.5%, 43.1%)" stroke-width="1.5"></path><path d="M969.96 248.03L1093.85 337.6" stroke="hsl(185.5, 51.5%, 43.1%)" stroke-width="1.5"></path><path d="M969.96 248.03L1138.14 233.67" stroke="hsl(185.5, 51.5%, 43.1%)" stroke-width="1.5"></path><path d="M969.96 248.03L793 371.52" stroke="hsl(185.5, 51.5%, 43.1%)" stroke-width="1.5"></path><path d="M966.95 551.05L966.95 551.05" stroke="hsl(185.5, 51.5%, 43.1%)" stroke-width="1.5"></path><path d="M966.95 551.05L999.26 640.73" stroke="hsl(185.5, 51.5%, 43.1%)" stroke-width="1.5"></path><path d="M999.26 640.73L999.26 640.73" stroke="hsl(185.5, 51.5%, 43.1%)" stroke-width="1.5"></path><path d="M999.26 640.73L1150.52 504.92" stroke="hsl(185.5, 51.5%, 43.1%)" stroke-width="1.5"></path><path d="M1138.14 233.67L1138.14 233.67" stroke="hsl(185.5, 51.5%, 43.1%)" stroke-width="1.5"></path><path d="M1138.14 233.67L1093.85 337.6" stroke="hsl(185.5, 51.5%, 43.1%)" stroke-width="1.5"></path><path d="M1093.85 337.6L1093.85 337.6" stroke="hsl(185.5, 51.5%, 43.1%)" stroke-width="1.5"></path><path d="M1093.85 337.6L1150.52 504.92" stroke="hsl(185.5, 51.5%, 43.1%)" stroke-width="1.5"></path><path d="M1150.52 504.92L1150.52 504.92" stroke="hsl(185.5, 51.5%, 43.1%)" stroke-width="1.5"></path><path d="M1150.52 504.92L1274.64 517.67" stroke="hsl(185.5, 51.5%, 43.1%)" stroke-width="1.5"></path><path d="M1150.52 504.92L966.95 551.05" stroke="hsl(185.5, 51.5%, 43.1%)" stroke-width="1.5"></path><path d="M1150.52 504.92L988.1 391.7" stroke="hsl(185.5, 51.5%, 43.1%)" stroke-width="1.5"></path><path d="M1295.44 60.75L1295.44 60.75" stroke="hsl(185.5, 51.5%, 43.1%)" stroke-width="1.5"></path><path d="M1295.44 60.75L1442.53 88.57" stroke="hsl(185.5, 51.5%, 43.1%)" stroke-width="1.5"></path><path d="M1295.44 60.75L1401.49 -47.13" stroke="hsl(185.5, 51.5%, 43.1%)" stroke-width="1.5"></path><path d="M1295.44 60.75L1311.78 252.67" stroke="hsl(185.5, 51.5%, 43.1%)" stroke-width="1.5"></path><path d="M1311.78 252.67L1311.78 252.67" stroke="hsl(185.5, 51.5%, 43.1%)" stroke-width="1.5"></path><path d="M1311.78 252.67L1413.89 343.08" stroke="hsl(185.5, 51.5%, 43.1%)" stroke-width="1.5"></path><path d="M1274.64 517.67L1274.64 517.67" stroke="hsl(185.5, 51.5%, 43.1%)" stroke-width="1.5"></path><path d="M1248.18 678.15L1248.18 678.15" stroke="hsl(185.5, 51.5%, 43.1%)" stroke-width="1.5"></path><path d="M1248.18 678.15L1274.64 517.67" stroke="hsl(185.5, 51.5%, 43.1%)" stroke-width="1.5"></path><path d="M1248.18 678.15L1150.52 504.92" stroke="hsl(185.5, 51.5%, 43.1%)" stroke-width="1.5"></path><path d="M1248.18 678.15L1398.96 499.95" stroke="hsl(185.5, 51.5%, 43.1%)" stroke-width="1.5"></path><path d="M1248.18 678.15L999.26 640.73" stroke="hsl(185.5, 51.5%, 43.1%)" stroke-width="1.5"></path><path d="M1401.49 -47.13L1401.49 -47.13" stroke="hsl(185.5, 51.5%, 43.1%)" stroke-width="1.5"></path><path d="M1401.49 -47.13L1442.53 88.57" stroke="hsl(185.5, 51.5%, 43.1%)" stroke-width="1.5"></path><path d="M1401.49 -47.13L1599.41 -72.75" stroke="hsl(185.5, 51.5%, 43.1%)" stroke-width="1.5"></path><path d="M1442.53 88.57L1442.53 88.57" stroke="hsl(185.5, 51.5%, 43.1%)" stroke-width="1.5"></path><path d="M1442.53 88.57L1587.42 46.02" stroke="hsl(185.5, 51.5%, 43.1%)" stroke-width="1.5"></path><path d="M1442.53 88.57L1588.15 214.36" stroke="hsl(185.5, 51.5%, 43.1%)" stroke-width="1.5"></path><path d="M1442.53 88.57L1311.78 252.67" stroke="hsl(185.5, 51.5%, 43.1%)" stroke-width="1.5"></path><path d="M1413.89 343.08L1413.89 343.08" stroke="hsl(185.5, 51.5%, 43.1%)" stroke-width="1.5"></path><path d="M1413.89 343.08L1398.96 499.95" stroke="hsl(185.5, 51.5%, 43.1%)" stroke-width="1.5"></path><path d="M1413.89 343.08L1588.15 214.36" stroke="hsl(185.5, 51.5%, 43.1%)" stroke-width="1.5"></path><path d="M1398.96 499.95L1398.96 499.95" stroke="hsl(185.5, 51.5%, 43.1%)" stroke-width="1.5"></path><path d="M1398.96 499.95L1274.64 517.67" stroke="hsl(185.5, 51.5%, 43.1%)" stroke-width="1.5"></path><path d="M1398.96 499.95L1578.8 530.3" stroke="hsl(185.5, 51.5%, 43.1%)" stroke-width="1.5"></path><path d="M1599.41 -72.75L1599.41 -72.75" stroke="hsl(185.5, 51.5%, 43.1%)" stroke-width="1.5"></path><path d="M1599.41 -72.75L1587.42 46.02" stroke="hsl(185.5, 51.5%, 43.1%)" stroke-width="1.5"></path><path d="M1587.42 46.02L1587.42 46.02" stroke="hsl(185.5, 51.5%, 43.1%)" stroke-width="1.5"></path><path d="M1587.42 46.02L1588.15 214.36" stroke="hsl(185.5, 51.5%, 43.1%)" stroke-width="1.5"></path><path d="M1587.42 46.02L1401.49 -47.13" stroke="hsl(185.5, 51.5%, 43.1%)" stroke-width="1.5"></path><path d="M1588.15 214.36L1588.15 214.36" stroke="hsl(185.5, 51.5%, 43.1%)" stroke-width="1.5"></path><path d="M1588.15 214.36L1311.78 252.67" stroke="hsl(185.5, 51.5%, 43.1%)" stroke-width="1.5"></path><path d="M1588.15 214.36L1599.41 -72.75" stroke="hsl(185.5, 51.5%, 43.1%)" stroke-width="1.5"></path><path d="M1578.8 530.3L1578.8 530.3" stroke="hsl(185.5, 51.5%, 43.1%)" stroke-width="1.5"></path><circle r="25" cx="988.1" cy="391.7" fill="url(&quot;#SvgjsRadialGradient1027&quot;)"></circle><circle r="25" cx="1098.71" cy="663.92" fill="url(&quot;#SvgjsRadialGradient1027&quot;)"></circle><circle r="25" cx="1293.63" cy="358.79" fill="url(&quot;#SvgjsRadialGradient1027&quot;)"></circle><circle r="25" cx="1414.75" cy="697.06" fill="url(&quot;#SvgjsRadialGradient1027&quot;)"></circle><circle r="25" cx="1601.16" cy="691.49" fill="url(&quot;#SvgjsRadialGradient1027&quot;)"></circle><circle r="5" cx="-91.72" cy="521.94" fill="#94bcc0"></circle><circle r="5" cx="-46.54" cy="671.63" fill="#94bcc0"></circle><circle r="5" cx="55.32" cy="527.08" fill="#94bcc0"></circle><circle r="5" cx="43.51" cy="706.38" fill="#94bcc0"></circle><circle r="5" cx="218.39" cy="496.68" fill="#94bcc0"></circle><circle r="5" cx="228.85" cy="651.97" fill="#94bcc0"></circle><circle r="5" cx="348.53" cy="549.64" fill="#94bcc0"></circle><circle r="5" cx="392.22" cy="654.16" fill="#94bcc0"></circle><circle r="5" cx="487.94" cy="507.89" fill="#94bcc0"></circle><circle r="5" cx="556.72" cy="687.56" fill="#94bcc0"></circle><circle r="5" cx="702.85" cy="534.48" fill="#94bcc0"></circle><circle r="5" cx="696.44" cy="711.96" fill="#94bcc0"></circle><circle r="5" cx="793" cy="371.52" fill="#94bcc0"></circle><circle r="5" cx="828.22" cy="547.63" fill="#94bcc0"></circle><circle r="5" cx="788.82" cy="654.35" fill="#94bcc0"></circle><circle r="5" cx="969.96" cy="248.03" fill="#94bcc0"></circle><circle r="5" cx="966.95" cy="551.05" fill="#94bcc0"></circle><circle r="5" cx="999.26" cy="640.73" fill="#94bcc0"></circle><circle r="5" cx="1138.14" cy="233.67" fill="#94bcc0"></circle><circle r="5" cx="1093.85" cy="337.6" fill="#94bcc0"></circle><circle r="5" cx="1150.52" cy="504.92" fill="#94bcc0"></circle><circle r="5" cx="1295.44" cy="60.75" fill="#94bcc0"></circle><circle r="5" cx="1311.78" cy="252.67" fill="#94bcc0"></circle><circle r="5" cx="1274.64" cy="517.67" fill="#94bcc0"></circle><circle r="5" cx="1248.18" cy="678.15" fill="#94bcc0"></circle><circle r="5" cx="1401.49" cy="-47.13" fill="#94bcc0"></circle><circle r="5" cx="1442.53" cy="88.57" fill="#94bcc0"></circle><circle r="5" cx="1413.89" cy="343.08" fill="#94bcc0"></circle><circle r="5" cx="1398.96" cy="499.95" fill="#94bcc0"></circle><circle r="5" cx="1599.41" cy="-72.75" fill="#94bcc0"></circle><circle r="5" cx="1587.42" cy="46.02" fill="#94bcc0"></circle><circle r="5" cx="1588.15" cy="214.36" fill="#94bcc0"></circle><circle r="5" cx="1578.8" cy="530.3" fill="#94bcc0"></circle></g><defs><mask id="SvgjsMask1026"><rect width="1440" height="560" fill="#ffffff"></rect></mask><radialGradient id="SvgjsRadialGradient1027"><stop stop-color="#ffffff" offset="0.1"></stop><stop stop-color="rgba(41, 120, 128, 1)" offset="0.2"></stop><stop stop-color="rgba(41, 120, 128, 0)" offset="1"></stop></radialGradient></defs></svg>