<svg width="551" height="542" viewBox="0 0 551 542" fill="none" xmlns="http://www.w3.org/2000/svg">
<path d="M12.4095 495.391C10.1913 495.391 8.05045 495.125 5.98702 494.591C3.94938 494.032 2.28574 493.321 0.996094 492.457L3.5109 486.894C4.72317 487.656 6.11599 488.291 7.68935 488.799C9.28851 489.282 10.8748 489.523 12.4481 489.523C13.5057 489.523 14.3568 489.434 15.0016 489.256C15.6465 489.053 16.1107 488.799 16.3945 488.494C16.704 488.164 16.8587 487.783 16.8587 487.351C16.8587 486.741 16.575 486.258 16.0076 485.903C15.4401 485.547 14.705 485.255 13.8023 485.026C12.8995 484.798 11.8936 484.569 10.7845 484.34C9.7012 484.112 8.605 483.82 7.49591 483.464C6.4126 483.108 5.41958 482.651 4.51683 482.092C3.61407 481.508 2.87898 480.758 2.31153 479.844C1.74409 478.904 1.46037 477.722 1.46037 476.3C1.46037 474.699 1.89885 473.251 2.7758 471.956C3.67856 470.66 5.01979 469.618 6.7995 468.831C8.57921 468.043 10.7974 467.649 13.4541 467.649C15.2338 467.649 16.9748 467.853 18.6771 468.259C20.4053 468.64 21.9399 469.212 23.2812 469.974L20.9211 475.576C19.6315 474.89 18.3547 474.382 17.0909 474.051C15.827 473.696 14.6019 473.518 13.4154 473.518C12.3579 473.518 11.5067 473.632 10.8619 473.861C10.2171 474.064 9.75279 474.344 9.46906 474.699C9.18534 475.055 9.04348 475.461 9.04348 475.919C9.04348 476.503 9.31431 476.973 9.85596 477.329C10.4234 477.659 11.1585 477.938 12.0613 478.167C12.9898 478.37 13.9957 478.586 15.079 478.815C16.1881 479.043 17.2843 479.336 18.3676 479.691C19.4767 480.022 20.4826 480.479 21.3854 481.063C22.2881 481.622 23.0103 482.371 23.552 483.311C24.1194 484.226 24.4032 485.382 24.4032 486.779C24.4032 488.329 23.9518 489.764 23.049 491.085C22.1721 492.381 20.8437 493.423 19.064 494.21C17.3101 494.998 15.0919 495.391 12.4095 495.391Z" fill="white"/>
<path d="M34.5189 494.858V468.183H40.8253L52.0452 486.322H48.7179L59.6283 468.183H65.9347L66.0121 494.858H58.9706L58.8932 478.739H60.0926L51.9291 492.228H48.5245L40.1289 478.739H41.5991V494.858H34.5189Z" fill="white"/>
<path d="M74.7598 494.858L86.7148 468.183H94.2592L106.253 494.858H98.2829L88.9201 471.879H91.9379L82.575 494.858H74.7598ZM81.2983 489.675L83.2714 484.112H96.5032L98.4764 489.675H81.2983Z" fill="white"/>
<path d="M115.002 494.858V468.183H127.382C129.859 468.183 131.986 468.577 133.766 469.364C135.572 470.152 136.965 471.295 137.945 472.794C138.925 474.267 139.415 476.02 139.415 478.053C139.415 480.06 138.925 481.8 137.945 483.273C136.965 484.721 135.572 485.839 133.766 486.627C131.986 487.389 129.859 487.77 127.382 487.77H119.258L122.662 484.607V494.858H115.002ZM131.754 494.858L125.022 485.141H133.186L139.956 494.858H131.754ZM122.662 485.407L119.258 481.94H126.918C128.517 481.94 129.704 481.597 130.478 480.911C131.277 480.225 131.677 479.272 131.677 478.053C131.677 476.808 131.277 475.842 130.478 475.157C129.704 474.471 128.517 474.128 126.918 474.128H119.258L122.662 470.66V485.407Z" fill="white"/>
<path d="M155.605 494.858V474.166H147.287V468.183H171.545V474.166H163.266V494.858H155.605Z" fill="white"/>
<path d="M195.563 494.858L207.518 468.183H215.062L227.056 494.858H219.086L209.723 471.879H212.741L203.378 494.858H195.563ZM202.101 489.675L204.074 484.112H217.306L219.279 489.675H202.101Z" fill="white"/>
<path d="M248.968 495.391C246.827 495.391 244.841 495.061 243.01 494.401C241.179 493.715 239.593 492.749 238.251 491.504C236.936 490.26 235.904 488.799 235.156 487.122C234.408 485.42 234.034 483.553 234.034 481.52C234.034 479.488 234.408 477.633 235.156 475.957C235.904 474.255 236.949 472.781 238.29 471.536C239.631 470.292 241.218 469.339 243.049 468.678C244.906 467.992 246.931 467.649 249.123 467.649C251.677 467.649 253.959 468.069 255.971 468.907C257.983 469.745 259.647 470.952 260.962 472.527L256.087 476.871C255.159 475.881 254.153 475.144 253.069 474.661C252.012 474.153 250.825 473.899 249.51 473.899C248.349 473.899 247.292 474.077 246.337 474.432C245.383 474.788 244.571 475.309 243.9 475.995C243.229 476.655 242.701 477.456 242.314 478.396C241.953 479.31 241.772 480.352 241.772 481.52C241.772 482.638 241.953 483.667 242.314 484.607C242.701 485.547 243.229 486.36 243.9 487.046C244.571 487.706 245.37 488.227 246.299 488.608C247.253 488.964 248.298 489.142 249.433 489.142C250.567 489.142 251.677 488.964 252.76 488.608C253.843 488.227 254.939 487.592 256.048 486.703L260.343 492C258.795 493.092 257.003 493.931 254.965 494.515C252.928 495.099 250.929 495.391 248.968 495.391ZM253.572 491.009V480.949H260.343V492L253.572 491.009Z" fill="white"/>
<path d="M271.777 494.858V468.183H284.157C286.634 468.183 288.762 468.577 290.541 469.364C292.347 470.152 293.74 471.295 294.72 472.794C295.7 474.267 296.19 476.02 296.19 478.053C296.19 480.06 295.7 481.8 294.72 483.273C293.74 484.721 292.347 485.839 290.541 486.627C288.762 487.389 286.634 487.77 284.157 487.77H276.033L279.437 484.607V494.858H271.777ZM288.529 494.858L281.797 485.141H289.961L296.732 494.858H288.529ZM279.437 485.407L276.033 481.94H283.693C285.292 481.94 286.479 481.597 287.253 480.911C288.052 480.225 288.452 479.272 288.452 478.053C288.452 476.808 288.052 475.842 287.253 475.157C286.479 474.471 285.292 474.128 283.693 474.128H276.033L279.437 470.66V485.407Z" fill="white"/>
<path d="M306.993 494.858V468.183H314.654V494.858H306.993Z" fill="white"/>
<path d="M340.184 495.391C338.043 495.391 336.057 495.061 334.225 494.401C332.42 493.715 330.847 492.749 329.505 491.504C328.19 490.26 327.158 488.799 326.41 487.122C325.662 485.42 325.288 483.553 325.288 481.52C325.288 479.488 325.662 477.633 326.41 475.957C327.158 474.255 328.19 472.781 329.505 471.536C330.847 470.292 332.42 469.339 334.225 468.678C336.057 467.992 338.043 467.649 340.184 467.649C342.686 467.649 344.917 468.081 346.877 468.945C348.863 469.809 350.514 471.054 351.829 472.68L346.954 477.024C346.077 476.008 345.11 475.233 344.053 474.699C343.021 474.166 341.86 473.899 340.57 473.899C339.461 473.899 338.443 474.077 337.514 474.432C336.586 474.788 335.786 475.309 335.115 475.995C334.47 476.655 333.955 477.456 333.568 478.396C333.207 479.336 333.026 480.377 333.026 481.52C333.026 482.664 333.207 483.705 333.568 484.645C333.955 485.585 334.47 486.398 335.115 487.084C335.786 487.745 336.586 488.253 337.514 488.608C338.443 488.964 339.461 489.142 340.57 489.142C341.86 489.142 343.021 488.875 344.053 488.342C345.11 487.808 346.077 487.033 346.954 486.017L351.829 490.361C350.514 491.962 348.863 493.207 346.877 494.096C344.917 494.96 342.686 495.391 340.184 495.391Z" fill="white"/>
<path d="M374.054 495.391C370.056 495.391 366.935 494.312 364.691 492.152C362.447 489.993 361.325 486.932 361.325 482.968V468.183H368.986V482.74C368.986 485.026 369.437 486.665 370.34 487.656C371.268 488.646 372.532 489.142 374.131 489.142C375.731 489.142 376.982 488.646 377.884 487.656C378.787 486.665 379.238 485.026 379.238 482.74V468.183H386.783V482.968C386.783 486.932 385.661 489.993 383.417 492.152C381.173 494.312 378.052 495.391 374.054 495.391Z" fill="white"/>
<path d="M398.55 494.858V468.183H406.21V488.875H419.132V494.858H398.55Z" fill="white"/>
<path d="M431.974 494.858V474.166H423.656V468.183H447.914V474.166H439.635V494.858H431.974Z" fill="white"/>
<path d="M469.426 495.391C465.428 495.391 462.307 494.312 460.064 492.152C457.82 489.993 456.698 486.932 456.698 482.968V468.183H464.358V482.74C464.358 485.026 464.809 486.665 465.712 487.656C466.641 488.646 467.905 489.142 469.504 489.142C471.103 489.142 472.354 488.646 473.257 487.656C474.159 486.665 474.611 485.026 474.611 482.74V468.183H482.155V482.968C482.155 486.932 481.033 489.993 478.789 492.152C476.545 494.312 473.424 495.391 469.426 495.391Z" fill="white"/>
<path d="M493.922 494.858V468.183H506.302C508.779 468.183 510.906 468.577 512.686 469.364C514.492 470.152 515.885 471.295 516.865 472.794C517.845 474.267 518.335 476.02 518.335 478.053C518.335 480.06 517.845 481.8 516.865 483.273C515.885 484.721 514.492 485.839 512.686 486.627C510.906 487.389 508.779 487.77 506.302 487.77H498.178L501.582 484.607V494.858H493.922ZM510.674 494.858L503.942 485.141H512.106L518.876 494.858H510.674ZM501.582 485.407L498.178 481.94H505.838C507.437 481.94 508.624 481.597 509.398 480.911C510.197 480.225 510.597 479.272 510.597 478.053C510.597 476.808 510.197 475.842 509.398 475.157C508.624 474.471 507.437 474.128 505.838 474.128H498.178L501.582 470.66V485.407Z" fill="white"/>
<path d="M536.18 478.51H548.754V484.15H536.18V478.51ZM536.721 489.027H550.882V494.858H529.138V468.183H550.379V474.013H536.721V489.027Z" fill="white"/>
<path d="M238.781 541.958V520.161H244.888V537.07H255.189V541.958H238.781Z" fill="white"/>
<path d="M260.469 541.958L269.999 520.161H276.014L285.575 541.958H279.221L271.757 523.182H274.163L266.699 541.958H260.469ZM265.681 537.723L267.254 533.177H277.802L279.375 537.723H265.681Z" fill="white"/>
<path d="M292.549 541.958V520.161H303.591C306.428 520.161 308.546 520.69 309.944 521.749C311.342 522.787 312.041 524.157 312.041 525.86C312.041 526.981 311.743 527.967 311.147 528.818C310.571 529.648 309.749 530.312 308.68 530.811C307.631 531.288 306.377 531.527 304.917 531.527L305.534 530.032C307.055 530.032 308.382 530.271 309.512 530.748C310.643 531.205 311.517 531.88 312.134 532.772C312.771 533.644 313.09 534.713 313.09 535.98C313.09 537.869 312.329 539.343 310.808 540.401C309.307 541.439 307.107 541.958 304.208 541.958H292.549ZM298.594 537.506H303.714C304.763 537.506 305.554 537.329 306.089 536.976C306.644 536.602 306.922 536.042 306.922 535.295C306.922 534.547 306.644 533.997 306.089 533.644C305.554 533.271 304.763 533.084 303.714 533.084H298.162V528.818H302.789C303.817 528.818 304.588 528.641 305.102 528.288C305.616 527.935 305.873 527.406 305.873 526.7C305.873 525.994 305.616 525.476 305.102 525.143C304.588 524.79 303.817 524.614 302.789 524.614H298.594V537.506Z" fill="white"/>
<path fill-rule="evenodd" clip-rule="evenodd" d="M188.249 268.209H0V313.876V319.441C6.22974e-07 318.987 0.000257248 318.531 0.000515733 318.071C0.000778314 317.604 0.00104281 317.133 0.00104281 316.659C0.00104281 316.185 0.000778237 315.714 0.000515618 315.247C0.000256859 314.787 0 314.33 0 313.876C0 299.428 0.260708 288.412 9.02651 280.828C18.4995 272.612 31.7158 268.504 48.6755 268.504H188.249V298.173L52.5717 297.945C46.0017 297.945 40.8832 299.466 37.2163 302.509C33.5493 305.4 31.7158 310.117 31.7158 316.659C31.7158 323.201 33.5493 327.994 37.2163 331.037C40.8832 333.928 46.0017 335.373 52.5717 335.373H134.62C151.58 335.373 164.72 339.557 174.04 347.925C183.483 356.116 188.22 368.313 188.249 384.517V384.819C188.22 400.873 183.483 413.071 174.04 421.413C166.149 428.498 155.519 432.584 142.152 433.67H0.000141347V404.296L130.724 404.524C137.447 404.524 142.565 403.003 146.079 399.96C149.746 396.765 151.58 391.668 151.58 384.669C151.58 377.67 149.746 372.649 146.079 369.606C142.565 366.411 137.447 364.814 130.724 364.814H48.6755C31.7158 364.814 18.4995 360.782 9.02651 352.718C0.261042 344.991 1.98836e-05 333.9 0 319.444V433.67H0.000141347V433.965H134.62C137.22 433.965 139.731 433.867 142.152 433.67H188.249V384.819C188.249 384.769 188.249 384.719 188.249 384.669C188.249 384.619 188.249 384.568 188.249 384.517V298.173L188.471 298.173V268.504H188.249V268.209Z" fill="white"/>
<path fill-rule="evenodd" clip-rule="evenodd" d="M263.062 268.502H188.254V433.963H354.626L339.033 399.378H244.475L228.897 433.929H188.472L263.062 268.502ZM320.446 268.502L395.051 433.963H395.328V268.502H320.446ZM325.558 369.211H257.95L290.244 297.508H293.264L325.558 369.211Z" fill="white"/>
<path fill-rule="evenodd" clip-rule="evenodd" d="M549.895 268.502H390.379V433.963H390.484V433.963H549.899V403.797H549.895V268.502ZM549.895 403.797H427.874V268.502H390.484V433.963H549.895V403.797Z" fill="white"/>
<path fill-rule="evenodd" clip-rule="evenodd" d="M549.887 0H395.324V268.503H549.887V0ZM515.708 104.668V76.291H521.083V106.895L506.242 121.737L514.105 129.6L531.934 111.771V76.291H537.309V113.997L517.906 133.401L535.215 150.71L492.603 193.322L486.446 187.166L472.839 200.773V213.019H467.463L467.463 198.546L482.645 183.364L449.99 150.709L492.603 108.096L502.441 117.935L515.708 104.668ZM402.258 84.8049V79.429L458.168 79.4293L472.708 93.9688C473.739 93.528 474.874 93.2835 476.065 93.2835C480.789 93.2835 484.619 97.1125 484.619 101.836C484.619 106.56 480.789 110.39 476.065 110.39C471.342 110.39 467.512 106.56 467.512 101.836C467.51 100.325 467.911 98.841 468.672 97.536L455.941 84.8049H402.258ZM402.258 100.766V95.389L402.258 95.3899H442.207L456.746 109.929C457.777 109.489 458.912 109.244 460.104 109.244C464.828 109.244 468.657 113.074 468.657 117.798C468.657 122.521 464.828 126.351 460.104 126.351C455.38 126.351 451.55 122.521 451.55 117.798C451.549 116.287 451.949 114.803 452.711 113.498L439.98 100.767L402.258 100.766ZM402.258 111.351L426.246 111.35L440.785 125.89C441.817 125.449 442.952 125.205 444.144 125.205C448.868 125.205 452.697 129.035 452.697 133.759C452.697 138.483 448.868 142.313 444.144 142.313C439.42 142.313 435.591 138.483 435.591 133.759C435.589 132.248 435.989 130.764 436.751 129.459L424.02 116.727L402.258 116.727V111.351ZM527.612 150.71L492.603 115.7L457.593 150.71L492.603 185.718L527.612 150.71ZM465.035 150.786L492.242 123.579L496.044 127.38L472.638 150.786L496.17 174.319L492.368 178.12L465.035 150.786ZM402.258 144.512V129.781L453.701 181.223V213.019H448.325V190.578L402.258 144.512ZM498.142 135.998L501.943 132.196L520.555 150.808L501.861 169.503L498.058 165.701L512.952 150.808L498.142 135.998ZM484.244 150.825C484.244 145.806 488.312 141.736 493.332 141.736C498.352 141.736 502.42 145.805 502.42 150.825C502.42 155.844 498.352 159.913 493.332 159.913C488.313 159.913 484.244 155.844 484.244 150.825ZM402.258 170.409V155.678L434.931 188.35V213.019H429.555V197.705L402.258 170.409ZM516.653 185.276C516.653 180.553 520.482 176.723 525.206 176.723C529.93 176.723 533.76 180.553 533.76 185.277C533.763 186.828 533.341 188.35 532.542 189.678L538.986 196.122V203.725L528.451 193.191C527.451 193.602 526.355 193.831 525.206 193.831C520.482 193.831 516.653 190 516.653 185.276ZM402.258 196.543V181.811L416.638 196.191L416.636 213.019H411.26L411.26 205.545L402.258 196.543ZM500.693 201.238C500.693 196.514 504.523 192.684 509.247 192.684C513.971 192.684 517.8 196.513 517.8 201.238C517.802 202.913 517.31 204.551 516.385 205.948L523.457 213.018H515.853L512.126 209.293C511.226 209.615 510.257 209.791 509.247 209.791C504.522 209.791 500.693 205.962 500.693 201.238Z" fill="white"/>
<path fill-rule="evenodd" clip-rule="evenodd" d="M395.32 0H188.246V268.503H395.32V0ZM289.824 53.8576C290.911 50.2243 296.04 50.2243 297.127 53.8576C299.641 62.3125 302.596 72.3294 302.596 73.6877C302.596 78.596 299.659 82.728 295.714 83.8887L295.981 99.1319C297.769 96.8923 304.109 90.3303 309.594 84.7572C312.243 82.0408 316.761 84.4177 316.047 88.1528C314.349 96.8115 312.277 107.066 311.666 108.221C308.948 113.382 303.14 115.691 298.69 113.348C297.706 112.83 296.87 112.129 296.194 111.297L296.48 127.598C298.752 124.941 304.536 118.962 309.594 113.823C312.243 111.107 316.761 113.518 316.047 117.219C314.349 125.878 312.277 136.132 311.666 137.321C308.948 142.482 303.14 144.757 298.69 142.414C297.944 142.021 297.284 141.524 296.714 140.944L296.979 156.095C299.519 153.227 304.873 147.712 309.594 142.889C312.243 140.207 316.761 142.584 316.047 146.285C314.349 154.944 312.277 165.198 311.666 166.387C308.948 171.548 303.14 173.823 298.69 171.48C298.16 171.201 297.673 170.869 297.231 170.492L297.478 184.603C300.175 181.618 305.163 176.481 309.594 171.955C312.243 169.273 316.761 171.65 316.047 175.351C314.349 184.01 312.277 194.264 311.666 195.453C308.948 200.614 303.14 202.889 298.69 200.546C298.359 200.372 298.045 200.177 297.747 199.963L297.978 213.134C300.761 210.096 305.424 205.281 309.594 201.021C312.243 198.339 316.761 200.716 316.047 204.417C314.349 213.076 312.277 223.33 311.666 224.519C308.948 229.68 303.14 231.955 298.69 229.612C298.544 229.535 298.402 229.455 298.263 229.37L298.316 232.43C298.486 238.576 296.278 243.772 293.459 243.772C290.639 243.772 288.432 238.576 288.635 232.43L288.693 229.989C284.374 231.668 279.095 229.366 276.543 224.519C275.932 223.33 273.859 213.076 272.161 204.417C271.448 200.716 276 198.339 278.615 201.021C282.268 204.754 286.302 208.913 289.116 211.93L289.381 200.617C284.949 202.842 279.232 200.561 276.543 195.453C275.932 194.264 273.859 184.01 272.161 175.351C271.448 171.65 276 169.273 278.615 171.955C282.567 175.993 286.963 180.516 289.78 183.564L290.071 171.163C289.892 171.275 289.708 171.381 289.519 171.48C285.069 173.823 279.26 171.548 276.543 166.387C275.932 165.198 273.859 154.944 272.161 146.285C271.448 142.584 276 140.207 278.615 142.889C282.893 147.26 287.692 152.2 290.444 155.222L290.763 141.609C290.38 141.911 289.964 142.181 289.519 142.414C285.069 144.757 279.26 142.482 276.543 137.321C275.932 136.132 273.859 125.878 272.161 117.219C271.448 113.518 276 111.107 278.615 113.823C283.261 118.545 288.522 123.976 291.108 126.887L291.459 111.926C290.897 112.486 290.249 112.966 289.519 113.348C285.069 115.691 279.26 113.382 276.543 108.221C275.932 107.066 273.859 96.8115 272.161 88.1528C271.448 84.4177 276 82.0408 278.615 84.7572C283.704 89.9283 289.53 95.9507 291.772 98.5817L292.111 84.0992C287.723 83.345 284.355 78.9651 284.355 73.6877C284.355 72.3294 287.277 62.3125 289.824 53.8576ZM341.976 142.662C341.407 140.764 338.724 140.764 338.156 142.662C336.823 147.078 335.295 152.309 335.295 153.018C335.295 155.775 337.056 158.062 339.352 158.456L339.174 166.02C338.001 164.646 334.954 161.5 332.292 158.8C330.924 157.381 328.543 158.622 328.916 160.573C329.804 165.095 330.888 170.451 331.208 171.054C332.63 173.749 335.668 174.955 337.996 173.731C338.378 173.532 338.717 173.281 339.011 172.989L338.827 180.803C337.474 179.282 334.723 176.445 332.292 173.98C330.924 172.561 328.543 173.82 328.916 175.753C329.804 180.275 330.888 185.631 331.208 186.251C332.63 188.947 335.668 190.135 337.996 188.911C338.229 188.79 338.446 188.649 338.647 188.491L338.48 195.6C337.04 194.022 334.53 191.442 332.292 189.16C330.924 187.759 328.543 189 328.916 190.933C329.804 195.455 330.888 200.811 331.208 201.431C332.63 204.127 335.668 205.315 337.996 204.091C338.095 204.04 338.191 203.984 338.285 203.926L338.133 210.403C336.659 208.811 334.359 206.448 332.292 204.34C330.924 202.939 328.543 204.18 328.916 206.113C329.804 210.635 330.888 215.991 331.208 216.611C332.615 219.279 335.606 220.471 337.924 219.308L337.785 225.217C336.313 223.641 334.203 221.469 332.292 219.52C330.924 218.119 328.543 219.36 328.916 221.293C329.804 225.815 330.888 231.171 331.208 231.792C332.543 234.323 335.304 235.525 337.564 234.648L337.534 235.923C337.427 239.133 338.582 241.846 340.057 241.846C341.531 241.846 342.687 239.133 342.598 235.923L342.57 234.325C342.642 234.369 342.717 234.411 342.793 234.452C345.121 235.675 348.159 234.487 349.581 231.792C349.901 231.171 350.984 225.815 351.873 221.293C352.246 219.36 349.883 218.119 348.497 219.52C346.316 221.744 343.876 224.259 342.421 225.846L342.3 218.967C342.455 219.079 342.62 219.18 342.793 219.271C345.121 220.495 348.159 219.307 349.581 216.611C349.901 215.991 350.984 210.635 351.873 206.113C352.246 204.18 349.883 202.939 348.497 204.34C346.179 206.703 343.57 209.386 342.159 210.945L342.03 203.576C342.261 203.772 342.516 203.946 342.793 204.091C345.121 205.315 348.159 204.127 349.581 201.431C349.901 200.811 350.984 195.455 351.873 190.933C352.246 189 349.883 187.759 348.497 189.16C346.028 191.678 343.227 194.559 341.898 196.056L341.759 188.144C342.058 188.447 342.403 188.706 342.793 188.911C345.121 190.135 348.159 188.947 349.581 186.251C349.901 185.631 350.984 180.275 351.873 175.753C352.246 173.82 349.883 172.561 348.497 173.98C345.852 176.663 342.826 179.786 341.637 181.173L341.488 172.66C341.841 173.095 342.279 173.461 342.793 173.731C345.121 174.955 348.159 173.749 349.581 171.054C349.901 170.451 350.984 165.095 351.873 160.573C352.246 158.622 349.883 157.381 348.497 158.8C345.628 161.71 342.311 165.137 341.376 166.307L341.236 158.346C343.3 157.74 344.836 155.582 344.836 153.018C344.836 152.309 343.291 147.078 341.976 142.662ZM236.998 142.662C237.566 140.764 240.249 140.764 240.818 142.662C242.133 147.078 243.679 152.309 243.679 153.018C243.679 155.582 242.142 157.74 240.079 158.346L240.218 166.307C241.153 165.137 244.47 161.71 247.339 158.8C248.725 157.381 251.088 158.622 250.715 160.573C249.827 165.095 248.743 170.451 248.423 171.054C247.001 173.749 243.963 174.955 241.635 173.731C241.121 173.461 240.683 173.095 240.33 172.66L240.479 181.173C241.668 179.786 244.694 176.663 247.339 173.98C248.725 172.561 251.088 173.82 250.715 175.753C249.827 180.275 248.743 185.631 248.423 186.251C247.001 188.947 243.963 190.135 241.635 188.911C241.245 188.706 240.9 188.447 240.601 188.144L240.74 196.056C242.069 194.559 244.87 191.678 247.339 189.16C248.725 187.759 251.088 189 250.715 190.933C249.827 195.455 248.743 200.811 248.423 201.431C247.001 204.127 243.963 205.315 241.635 204.091C241.358 203.946 241.104 203.772 240.872 203.576L241.002 210.945C242.412 209.386 245.022 206.703 247.339 204.34C248.725 202.939 251.088 204.18 250.715 206.113C249.827 210.635 248.743 215.991 248.423 216.611C247.001 219.307 243.963 220.495 241.635 219.271C241.462 219.18 241.298 219.079 241.142 218.967L241.263 225.846C242.719 224.259 245.158 221.744 247.339 219.52C248.725 218.119 251.088 219.36 250.715 221.293C249.827 225.815 248.743 231.171 248.423 231.792C247.001 234.487 243.963 235.675 241.635 234.452C241.601 234.434 241.568 234.416 241.535 234.397C241.493 234.374 241.452 234.35 241.412 234.325L241.44 235.923C241.529 239.133 240.374 241.846 238.899 241.846C237.424 241.846 236.269 239.133 236.376 235.923L236.406 234.648C234.147 235.525 231.385 234.323 230.05 231.792C229.731 231.171 228.647 225.815 227.758 221.293C227.385 219.36 229.766 218.119 231.134 219.52C233.045 221.469 235.155 223.641 236.627 225.217L236.766 219.308C234.448 220.47 231.457 219.279 230.05 216.611C229.731 215.991 228.647 210.635 227.758 206.113C227.385 204.18 229.766 202.939 231.134 204.34C233.202 206.448 235.501 208.811 236.975 210.403L237.127 203.926C237.033 203.984 236.937 204.04 236.838 204.091C234.51 205.315 231.472 204.127 230.05 201.431C229.731 200.811 228.647 195.455 227.758 190.933C227.385 189 229.766 187.759 231.134 189.16C233.372 191.442 235.882 194.022 237.322 195.6L237.489 188.491C237.288 188.649 237.071 188.79 236.838 188.911C234.51 190.135 231.472 188.947 230.05 186.251C229.731 185.631 228.647 180.275 227.758 175.753C227.385 173.82 229.766 172.561 231.134 173.98C233.565 176.445 236.317 179.282 237.669 180.802L237.853 172.989C237.559 173.281 237.22 173.532 236.838 173.731C234.51 174.955 231.472 173.749 230.05 171.054C229.731 170.451 228.647 165.095 227.758 160.573C227.385 158.622 229.766 157.381 231.134 158.8C233.796 161.5 236.844 164.646 238.016 166.02L238.194 158.456C235.899 158.062 234.137 155.775 234.137 153.018C234.137 152.309 235.665 147.078 236.998 142.662ZM245.691 28.1372C225.615 48.246 225.615 80.8477 245.691 100.956C246.442 101.708 246.441 102.927 245.688 103.678C244.936 104.428 243.718 104.428 242.967 103.675C221.391 82.0643 221.391 47.0294 242.967 25.4182C243.718 24.6661 244.936 24.6652 245.688 25.416C246.441 26.1668 246.442 27.3852 245.691 28.1372ZM257.599 40.0647C244.098 53.5876 244.098 75.5099 257.599 89.0288C258.35 89.7807 258.349 90.9991 257.597 91.75C256.845 92.5009 255.627 92.5001 254.876 91.7481C239.874 76.7266 239.875 52.3708 254.875 37.3457C255.626 36.5936 256.845 36.5927 257.597 37.3435C258.349 38.0943 258.35 39.3127 257.599 40.0647ZM264.316 64.5468C264.316 69.2563 266.184 73.7722 269.507 77.1016C270.258 77.8537 270.257 79.072 269.505 79.8228C268.753 80.5736 267.534 80.5725 266.784 79.8204C262.739 75.7688 260.468 70.2748 260.468 64.5468C260.468 58.8189 262.739 53.3249 266.784 49.2733C267.534 48.5212 268.753 48.5201 269.505 49.2708C270.257 50.0216 270.258 51.24 269.507 51.9921C266.184 55.3215 264.316 59.8374 264.316 64.5468ZM278.691 67.8922C277.805 67.004 277.308 65.8007 277.308 64.5468C277.308 63.2929 277.805 62.0897 278.691 61.2015C279.052 60.8396 279.542 60.6361 280.053 60.636C280.564 60.6358 281.054 60.839 281.415 61.2007L283.399 63.1873C284.149 63.9385 284.149 65.1552 283.399 65.9063L281.415 67.893C281.054 68.2547 280.564 68.4579 280.053 68.4577C279.542 68.4575 279.052 68.2541 278.691 67.8922ZM343.621 103.678C342.869 102.927 342.868 101.708 343.619 100.956C363.695 80.8477 363.695 48.246 343.619 28.1372C342.868 27.3852 342.869 26.1668 343.621 25.416C344.373 24.6652 345.591 24.6661 346.342 25.4182C367.918 47.0294 367.918 82.0643 346.342 103.675C345.591 104.428 344.373 104.428 343.621 103.678ZM331.711 89.0288C345.211 75.5099 345.211 53.5876 331.71 40.0647C330.96 39.3127 330.961 38.0943 331.713 37.3435C332.465 36.5927 333.683 36.5936 334.434 37.3457C349.435 52.3708 349.435 76.7266 334.434 91.7481C333.683 92.5001 332.464 92.5009 331.713 91.75C330.961 90.9991 330.96 89.7807 331.711 89.0288ZM319.802 77.1016C323.126 73.7722 324.993 69.2563 324.993 64.5468C324.993 59.8374 323.126 55.3215 319.802 51.9921C319.051 51.24 319.052 50.0216 319.805 49.2708C320.557 48.5201 321.775 48.5212 322.526 49.2733C326.57 53.3249 328.842 58.8189 328.842 64.5468C328.842 70.2748 326.57 75.7688 322.526 79.8204C321.775 80.5725 320.557 80.5736 319.805 79.8228C319.052 79.072 319.051 77.8537 319.802 77.1016ZM312.001 64.5468C312.001 65.8007 311.504 67.004 310.618 67.8922C310.258 68.2541 309.768 68.4575 309.256 68.4577C308.745 68.4579 308.255 68.2547 307.894 67.893L305.911 65.9063C305.161 65.1552 305.161 63.9385 305.911 63.1873L307.894 61.2007C308.255 60.839 308.745 60.6358 309.256 60.636C309.768 60.6361 310.258 60.8396 310.618 61.2015C311.504 62.0897 312.001 63.2929 312.001 64.5468Z" fill="white"/>
<path fill-rule="evenodd" clip-rule="evenodd" d="M188.471 0H0V269.244H188.471V0ZM69.8664 162.999C72.0961 160.77 75.1202 159.517 78.2735 159.517C81.4268 159.517 84.4509 160.77 86.6806 162.999C88.9103 165.229 90.1629 168.253 90.1629 171.406C90.1629 174.56 88.9103 177.584 86.6806 179.813C84.4509 182.043 81.4268 183.296 78.2735 183.296C75.1202 183.296 72.0961 182.043 69.8664 179.813C67.6367 177.584 66.3841 174.56 66.3841 171.406C66.3841 168.253 67.6367 165.229 69.8664 162.999ZM75.4711 174.209C76.2144 174.952 77.2224 175.369 78.2735 175.369C79.3246 175.369 80.3326 174.952 81.0759 174.209C81.8191 173.465 82.2366 172.457 82.2366 171.406C82.2366 170.355 81.8191 169.347 81.0759 168.604C80.3326 167.861 79.3246 167.443 78.2735 167.443C77.2224 167.443 76.2144 167.861 75.4711 168.604C74.7279 169.347 74.3104 170.355 74.3104 171.406C74.3104 172.457 74.7279 173.465 75.4711 174.209ZM69.8664 131.294C72.0961 129.064 75.1202 127.812 78.2735 127.812C81.4268 127.812 84.4509 129.064 86.6806 131.294C88.9103 133.524 90.1629 136.548 90.1629 139.701C90.1629 142.854 88.9103 145.879 86.6806 148.108C84.4509 150.338 81.4268 151.591 78.2735 151.591C75.1202 151.591 72.0961 150.338 69.8664 148.108C67.6367 145.879 66.3841 142.854 66.3841 139.701C66.3841 136.548 67.6367 133.524 69.8664 131.294ZM75.4711 142.504C76.2144 143.247 77.2224 143.664 78.2735 143.664C79.3246 143.664 80.3326 143.247 81.0759 142.504C81.8191 141.76 82.2366 140.752 82.2366 139.701C82.2366 138.65 81.8191 137.642 81.0759 136.899C80.3326 136.156 79.3246 135.738 78.2735 135.738C77.2224 135.738 76.2144 136.156 75.4711 136.899C74.7279 137.642 74.3104 138.65 74.3104 139.701C74.3104 140.752 74.7279 141.76 75.4711 142.504ZM172.228 158.356C171.485 159.099 170.477 159.517 169.426 159.517H149.61V183.296H169.426C170.477 183.296 171.485 183.713 172.228 184.457C172.971 185.2 173.389 186.208 173.389 187.259C173.389 188.31 172.971 189.318 172.228 190.061C171.485 190.805 170.477 191.222 169.426 191.222H149.61C149.606 196.476 147.517 201.514 143.801 205.229C140.086 208.944 135.048 211.034 129.794 211.038V230.853C129.794 231.904 129.377 232.913 128.634 233.656C127.89 234.399 126.882 234.817 125.831 234.817C124.78 234.817 123.772 234.399 123.029 233.656C122.286 232.913 121.868 231.904 121.868 230.853V211.038H98.0892V230.853C98.0892 231.904 97.6716 232.913 96.9284 233.656C96.1852 234.399 95.1771 234.817 94.126 234.817C93.075 234.817 92.0669 234.399 91.3237 233.656C90.5804 232.913 90.1629 231.904 90.1629 230.853V211.038H66.3841V230.853C66.3841 231.904 65.9666 232.913 65.2233 233.656C64.4801 234.399 63.472 234.817 62.421 234.817C61.3699 234.817 60.3618 234.399 59.6186 233.656C58.8754 232.913 58.4578 231.904 58.4578 230.853V211.038C53.2037 211.034 48.1659 208.944 44.4506 205.229C40.7354 201.514 38.6463 196.476 38.6421 191.222H18.8264C17.7753 191.222 16.7673 190.805 16.024 190.061C15.2808 189.318 14.8633 188.31 14.8633 187.259C14.8633 186.208 15.2808 185.2 16.024 184.457C16.7673 183.713 17.7753 183.296 18.8264 183.296H38.6421V159.517H18.8264C17.7753 159.517 16.7673 159.099 16.024 158.356C15.2808 157.613 14.8633 156.605 14.8633 155.554C14.8633 154.503 15.2808 153.495 16.024 152.751C16.7673 152.008 17.7753 151.591 18.8264 151.591H38.6421V127.812H18.8264C17.7753 127.812 16.7673 127.394 16.024 126.651C15.2808 125.908 14.8633 124.9 14.8633 123.849C14.8633 122.798 15.2808 121.79 16.024 121.046C16.7673 120.303 17.7753 119.886 18.8264 119.886H38.6421C38.6463 114.631 40.7354 109.594 44.4506 105.878C48.1659 102.163 53.2037 100.074 58.4578 100.07V80.2542C58.4578 79.2031 58.8754 78.195 59.6186 77.4518C60.3618 76.7086 61.3699 76.291 62.421 76.291C63.472 76.291 64.4801 76.7086 65.2233 77.4518C65.9666 78.195 66.3841 79.2031 66.3841 80.2542V100.07H90.1629V80.2542C90.1629 79.2031 90.5804 78.195 91.3237 77.4518C92.0669 76.7086 93.075 76.291 94.126 76.291C95.1771 76.291 96.1852 76.7086 96.9284 77.4518C97.6716 78.195 98.0892 79.2031 98.0892 80.2542V100.07H121.868V80.2542C121.868 79.2031 122.286 78.195 123.029 77.4518C123.772 76.7086 124.78 76.291 125.831 76.291C126.882 76.291 127.89 76.7086 128.634 77.4518C129.377 78.195 129.794 79.2031 129.794 80.2542V100.07C135.048 100.074 140.086 102.163 143.801 105.878C147.517 109.594 149.606 114.631 149.61 119.886H169.426C170.477 119.886 171.485 120.303 172.228 121.046C172.971 121.79 173.389 122.798 173.389 123.849C173.389 124.9 172.971 125.908 172.228 126.651C171.485 127.394 170.477 127.812 169.426 127.812H149.61V151.591H169.426C170.477 151.591 171.485 152.008 172.228 152.751C172.971 153.495 173.389 154.503 173.389 155.554C173.389 156.605 172.971 157.613 172.228 158.356ZM138.201 199.629C140.431 197.399 141.684 194.375 141.684 191.222V119.886C141.684 116.732 140.431 113.708 138.201 111.478C135.972 109.249 132.948 107.996 129.794 107.996H58.4578C55.3046 107.996 52.2804 109.249 50.0507 111.478C47.821 113.708 46.5684 116.732 46.5684 119.886V191.222C46.5684 194.375 47.821 197.399 50.0507 199.629C52.2804 201.859 55.3046 203.111 58.4578 203.111H129.794C132.948 203.111 135.972 201.859 138.201 199.629ZM101.572 131.294C103.801 129.064 106.825 127.812 109.979 127.812C113.132 127.812 116.156 129.064 118.386 131.294C120.615 133.524 121.868 136.548 121.868 139.701C121.868 142.854 120.615 145.879 118.386 148.108C116.156 150.338 113.132 151.591 109.979 151.591C106.825 151.591 103.801 150.338 101.572 148.108C99.3418 145.879 98.0892 142.854 98.0892 139.701C98.0892 136.548 99.3418 133.524 101.572 131.294ZM107.176 142.504C107.919 143.247 108.927 143.664 109.979 143.664C111.03 143.664 112.038 143.247 112.781 142.504C113.524 141.76 113.942 140.752 113.942 139.701C113.942 138.65 113.524 137.642 112.781 136.899C112.038 136.156 111.03 135.738 109.979 135.738C108.927 135.738 107.919 136.156 107.176 136.899C106.433 137.642 106.015 138.65 106.015 139.701C106.015 140.752 106.433 141.76 107.176 142.504ZM101.572 162.999C103.801 160.77 106.825 159.517 109.979 159.517C113.132 159.517 116.156 160.77 118.386 162.999C120.615 165.229 121.868 168.253 121.868 171.406C121.868 174.56 120.615 177.584 118.386 179.813C116.156 182.043 113.132 183.296 109.979 183.296C106.825 183.296 103.801 182.043 101.572 179.813C99.3418 177.584 98.0892 174.56 98.0892 171.406C98.0892 168.253 99.3418 165.229 101.572 162.999ZM107.176 174.209C107.919 174.952 108.927 175.369 109.979 175.369C111.03 175.369 112.038 174.952 112.781 174.209C113.524 173.465 113.942 172.457 113.942 171.406C113.942 170.355 113.524 169.347 112.781 168.604C112.038 167.861 111.03 167.443 109.979 167.443C108.927 167.443 107.919 167.861 107.176 168.604C106.433 169.347 106.015 170.355 106.015 171.406C106.015 172.457 106.433 173.465 107.176 174.209Z" fill="white"/>
<rect x="0.945312" y="521.642" width="180.968" height="18.9001" fill="white"/>
<rect x="370.441" y="521.642" width="179.551" height="18.9001" fill="white"/>
<rect x="194.199" y="521.642" width="27.8776" height="18.9001" fill="white"/>
<rect x="327.445" y="521.642" width="30.2401" height="18.9001" fill="white"/>
</svg>
